<?xml version="1.0" encoding="UTF-8"?>
<!DOCTYPE svg PUBLIC "-//W3C//DTD SVG 1.1//EN" "http://www.w3.org/Graphics/SVG/1.1/DTD/svg11.dtd">
<!-- Creator: CorelDRAW X8 -->
<svg xmlns="http://www.w3.org/2000/svg" xml:space="preserve" width="15.8786mm" height="10.371mm" version="1.1" shape-rendering="geometricPrecision" text-rendering="geometricPrecision" image-rendering="optimizeQuality" fill-rule="evenodd" clip-rule="evenodd"
viewBox="0 0 112 73"
 xmlns:xlink="http://www.w3.org/1999/xlink">
 <g id="Camada_x0020_1">
  <metadata id="CorelCorpID_0Corel-Layer"/>
  <path fill="#FF652F" d="M94 17c-14,4 -12,14 -32,14 -1,0 -2,1 -2,2l0 6c0,1 1,1 2,1 20,1 16,9 36,15 -13,-4 -31,0 -38,4l0 11c4,-10 45,-13 52,0 0,0 0,0 0,0 -4,-8 -5,-18 -1,-24 -14,3 -17,-8 -34,-10 16,-4 16,-13 29,-13 -5,-5 -4,-15 0,-21 -16,9 -35,9 -43,6 -1,-1 -2,-2 -3,-3l0 11c6,2 24,4 34,1zm-73 56c-2,-9 -6,-18 -21,-20 14,-3 19,-17 29,-17 -8,-1 -6,-17 -23,-18 15,-2 19,-9 21,-18 11,6 21,7 27,5l0 65c-2,-1 -23,-3 -33,3zm13 -31c-6,2 -10,7 -11,11 2,3 7,7 13,8 5,0 8,-1 10,-3l0 -17c-3,0 -8,0 -12,1zm-8 -22c2,6 6,8 9,9 3,2 8,1 11,1l0 -14c-2,-3 -6,-3 -11,-2 -1,0 -7,2 -9,6z"/>
 </g>
</svg>
